<?xml version="1.0" encoding="UTF-8" standalone="no"?>
<svg width="56px" height="44px" viewBox="0 0 56 44" version="1.1" xmlns="http://www.w3.org/2000/svg" xmlns:xlink="http://www.w3.org/1999/xlink" xmlns:sketch="http://www.bohemiancoding.com/sketch/ns">
    <!-- Generator: Sketch 3.4.4 (17249) - http://www.bohemiancoding.com/sketch -->
    <title></title>
    <desc>Created with Sketch.</desc>
    <defs></defs>
    <g id="Page-1" stroke="none" stroke-width="1" fill="none" fill-rule="evenodd" sketch:type="MSPage">
        <g id="Desktop" sketch:type="MSArtboardGroup" transform="translate(-1100.000000, 0.000000)" fill="#FFFFFF">
            <path d="M1121.42857,28.2857143 C1121.42857,29.1785759 1121.28906,30.0937453 1121.01004,31.03125 C1120.73103,31.9687547 1120.25112,32.8169605 1119.57031,33.5758929 C1118.88951,34.3348252 1118.08036,34.7142857 1117.14286,34.7142857 C1116.20535,34.7142857 1115.39621,34.3348252 1114.7154,33.5758929 C1114.03459,32.8169605 1113.55469,31.9687547 1113.27567,31.03125 C1112.99665,30.0937453 1112.85714,29.1785759 1112.85714,28.2857143 C1112.85714,27.3928527 1112.99665,26.4776833 1113.27567,25.5401786 C1113.55469,24.6026739 1114.03459,23.7544681 1114.7154,22.9955357 C1115.39621,22.2366033 1116.20535,21.8571429 1117.14286,21.8571429 C1118.08036,21.8571429 1118.88951,22.2366033 1119.57031,22.9955357 C1120.25112,23.7544681 1120.73103,24.6026739 1121.01004,25.5401786 C1121.28906,26.4776833 1121.42857,27.3928527 1121.42857,28.2857143 L1121.42857,28.2857143 Z M1142.85714,28.2857143 C1142.85714,29.1785759 1142.71764,30.0937453 1142.43862,31.03125 C1142.1596,31.9687547 1141.67969,32.8169605 1140.99888,33.5758929 C1140.31808,34.3348252 1139.50893,34.7142857 1138.57143,34.7142857 C1137.63392,34.7142857 1136.82478,34.3348252 1136.14397,33.5758929 C1135.46317,32.8169605 1134.98326,31.9687547 1134.70424,31.03125 C1134.42522,30.0937453 1134.28571,29.1785759 1134.28571,28.2857143 C1134.28571,27.3928527 1134.42522,26.4776833 1134.70424,25.5401786 C1134.98326,24.6026739 1135.46317,23.7544681 1136.14397,22.9955357 C1136.82478,22.2366033 1137.63392,21.8571429 1138.57143,21.8571429 C1139.50893,21.8571429 1140.31808,22.2366033 1140.99888,22.9955357 C1141.67969,23.7544681 1142.1596,24.6026739 1142.43862,25.5401786 C1142.71764,26.4776833 1142.85714,27.3928527 1142.85714,28.2857143 L1142.85714,28.2857143 Z M1148.21429,28.2857143 C1148.21429,25.6071295 1147.4442,23.3303665 1145.90402,21.4553571 C1144.36383,19.5803478 1142.2768,18.6428571 1139.64286,18.6428571 C1138.72767,18.6428571 1136.55136,18.8772298 1133.11384,19.3459821 C1131.52901,19.5915191 1129.7768,19.7142857 1127.85714,19.7142857 C1125.93749,19.7142857 1124.18528,19.5915191 1122.60045,19.3459821 C1119.20757,18.8772298 1117.03125,18.6428571 1116.07143,18.6428571 C1113.43749,18.6428571 1111.35045,19.5803478 1109.81027,21.4553571 C1108.27008,23.3303665 1107.5,25.6071295 1107.5,28.2857143 C1107.5,30.2500098 1107.85714,31.9631623 1108.57143,33.4252232 C1109.28572,34.8872841 1110.18973,36.0368262 1111.28348,36.8738839 C1112.37724,37.7109417 1113.73883,38.3805778 1115.3683,38.8828125 C1116.99778,39.3850472 1118.56026,39.7142849 1120.0558,39.8705357 C1121.55135,40.0267865 1123.21428,40.1049107 1125.04464,40.1049107 L1130.66964,40.1049107 C1132.50001,40.1049107 1134.16294,40.0267865 1135.65848,39.8705357 C1137.15403,39.7142849 1138.71651,39.3850472 1140.34598,38.8828125 C1141.97545,38.3805778 1143.33705,37.7109417 1144.4308,36.8738839 C1145.52456,36.0368262 1146.42857,34.8872841 1147.14286,33.4252232 C1147.85715,31.9631623 1148.21429,30.2500098 1148.21429,28.2857143 L1148.21429,28.2857143 Z M1155.71429,22.3928571 C1155.71429,27.013416 1155.03349,30.7075754 1153.67188,33.4754464 C1152.82366,35.194205 1151.64621,36.6785652 1150.13951,37.9285714 C1148.6328,39.1785777 1147.05916,40.1383895 1145.41853,40.8080357 C1143.77789,41.4776819 1141.88059,42.0078105 1139.72656,42.3984375 C1137.57253,42.7890645 1135.65849,43.0345977 1133.98438,43.1350446 C1132.31026,43.2354916 1130.44644,43.2857143 1128.39286,43.2857143 C1126.65178,43.2857143 1125.06697,43.2522325 1123.63839,43.1852679 C1122.20981,43.1183032 1120.56363,42.9787957 1118.69978,42.7667411 C1116.83593,42.5546864 1115.13394,42.2198684 1113.59375,41.7622768 C1112.05356,41.3046852 1110.52456,40.7299142 1109.0067,40.0379464 C1107.48883,39.3459787 1106.1384,38.4419699 1104.95536,37.3258929 C1103.77232,36.2098158 1102.8125,34.9263465 1102.07589,33.4754464 C1100.69196,30.729897 1100,27.0357375 1100,22.3928571 C1100,17.1026521 1101.51784,12.6830535 1104.55357,9.13392857 C1103.95089,7.30356228 1103.64955,5.40625982 1103.64955,3.44196429 C1103.64955,0.852665625 1104.21874,-1.58034576 1105.35714,-3.85714286 C1107.76787,-3.85714286 1109.88838,-3.41629905 1111.71875,-2.53459821 C1113.54912,-1.65289738 1115.65847,-0.274562946 1118.04688,1.60044643 C1121.32814,0.819192522 1124.77677,0.428571429 1128.39286,0.428571429 C1131.69645,0.428571429 1134.82141,0.785710714 1137.76786,1.5 C1140.11162,-0.330366295 1142.19865,-1.68079922 1144.02902,-2.55133929 C1145.85938,-3.42187935 1147.96874,-3.85714286 1150.35714,-3.85714286 C1151.49554,-1.58034576 1152.06473,0.852665625 1152.06473,3.44196429 C1152.06473,5.38393828 1151.7634,7.25891953 1151.16071,9.06696429 C1154.19644,12.6384107 1155.71429,17.0803306 1155.71429,22.3928571 L1155.71429,22.3928571 Z" id="" sketch:type="MSShapeGroup" transform="translate(1127.857143, 19.714286) rotate(-180.000000) translate(-1127.857143, -19.714286) "></path>
        </g>
    </g>
</svg>